<svg width="1007" height="237" viewBox="0 0 1007 237" fill="none" xmlns="http://www.w3.org/2000/svg">
<g filter="url(#filter0_d_1_68)">
<path d="M477.663 23L997 37.1082V184.604L419 227L477.663 23Z" fill="#EB6424"/>
<path d="M0 0L556 14.6429L544.109 165.19L16.2152 205L0 0Z" fill="#FA9500"/>
<path d="M136.048 97.16C136.4 97.16 136.704 97.288 136.96 97.544C137.216 97.8 137.344 98.104 137.344 98.456V105.704C137.344 106.056 137.216 106.36 136.96 106.616C136.704 106.872 136.4 107 136.048 107H108.016C107.664 107 107.36 106.872 107.104 106.616C106.848 106.36 106.72 106.056 106.72 105.704V74.696C106.72 74.344 106.848 74.04 107.104 73.784C107.36 73.528 107.664 73.4 108.016 73.4H118.384C118.736 73.4 119.04 73.528 119.296 73.784C119.552 74.04 119.68 74.344 119.68 74.696V97.16H136.048ZM154.269 105.368C153.853 106.456 153.133 107 152.109 107H143.037C142.749 107 142.493 106.904 142.269 106.712C142.077 106.488 141.981 106.232 141.981 105.944L142.029 105.656L152.493 74.984C152.621 74.568 152.861 74.2 153.213 73.88C153.565 73.56 154.045 73.4 154.653 73.4H167.997C168.605 73.4 169.085 73.56 169.437 73.88C169.789 74.2 170.029 74.568 170.157 74.984L180.621 105.656L180.669 105.944C180.669 106.232 180.557 106.488 180.333 106.712C180.141 106.904 179.901 107 179.613 107H170.541C169.517 107 168.797 106.456 168.381 105.368L167.181 102.008H155.469L154.269 105.368ZM161.325 82.664L157.917 92.648H164.733L161.325 82.664ZM216.987 73.4C217.339 73.4 217.643 73.528 217.899 73.784C218.155 74.04 218.283 74.344 218.283 74.696V105.704C218.283 106.056 218.155 106.36 217.899 106.616C217.643 106.872 217.339 107 216.987 107H209.259C208.491 107 207.851 106.664 207.339 105.992L196.875 92.648V105.704C196.875 106.056 196.747 106.36 196.491 106.616C196.235 106.872 195.931 107 195.579 107H186.651C186.299 107 185.995 106.872 185.739 106.616C185.483 106.36 185.355 106.056 185.355 105.704V74.696C185.355 74.344 185.483 74.04 185.739 73.784C185.995 73.528 186.299 73.4 186.651 73.4H194.427C195.195 73.4 195.819 73.72 196.299 74.36L206.763 88.808V74.696C206.763 74.344 206.891 74.04 207.147 73.784C207.403 73.528 207.707 73.4 208.059 73.4H216.987ZM260.024 86.744C260.376 86.744 260.68 86.872 260.936 87.128C261.192 87.384 261.32 87.688 261.32 88.04V93.128C261.32 97.992 259.656 101.608 256.328 103.976C253.032 106.312 248.664 107.48 243.224 107.48C237.784 107.48 233.4 106.312 230.072 103.976C226.776 101.608 225.128 97.96 225.128 93.032V87.368C225.128 84.104 225.928 81.4 227.528 79.256C229.128 77.08 231.288 75.48 234.008 74.456C236.728 73.432 239.8 72.92 243.224 72.92C247.32 72.92 250.696 73.592 253.352 74.936C256.008 76.28 257.928 77.8 259.112 79.496C260.328 81.192 260.936 82.568 260.936 83.624C260.936 83.912 260.824 84.168 260.6 84.392C260.408 84.584 260.168 84.68 259.88 84.68H249.032C248.392 84.68 247.928 84.504 247.64 84.152C246.648 82.904 245.176 82.28 243.224 82.28C241.752 82.28 240.52 82.616 239.528 83.288C238.568 83.96 238.088 84.824 238.088 85.88V94.04C238.088 95.32 238.568 96.328 239.528 97.064C240.488 97.768 241.72 98.12 243.224 98.12C245.208 98.12 246.664 97.784 247.592 97.112C248.552 96.408 249.048 95.592 249.08 94.664H246.104C245.752 94.664 245.448 94.536 245.192 94.28C244.936 94.024 244.808 93.72 244.808 93.368V88.04C244.808 87.688 244.936 87.384 245.192 87.128C245.448 86.872 245.752 86.744 246.104 86.744H260.024ZM283.525 107.48C278.149 107.48 273.877 106.312 270.709 103.976C267.573 101.64 266.005 97.992 266.005 93.032V74.696C266.005 74.344 266.133 74.04 266.389 73.784C266.645 73.528 266.949 73.4 267.301 73.4H277.333C277.685 73.4 277.989 73.528 278.245 73.784C278.501 74.04 278.629 74.344 278.629 74.696V93.8C278.629 95.112 279.061 96.12 279.925 96.824C280.821 97.528 282.021 97.88 283.525 97.88C285.029 97.88 286.213 97.528 287.077 96.824C287.973 96.12 288.421 95.112 288.421 93.8V74.696C288.421 74.344 288.549 74.04 288.805 73.784C289.061 73.528 289.365 73.4 289.717 73.4H299.749C300.101 73.4 300.405 73.528 300.661 73.784C300.917 74.04 301.045 74.344 301.045 74.696V93.032C301.045 97.992 299.461 101.64 296.293 103.976C293.157 106.312 288.901 107.48 283.525 107.48ZM317.394 105.368C316.978 106.456 316.258 107 315.234 107H306.162C305.874 107 305.618 106.904 305.394 106.712C305.202 106.488 305.106 106.232 305.106 105.944L305.154 105.656L315.618 74.984C315.746 74.568 315.986 74.2 316.338 73.88C316.69 73.56 317.17 73.4 317.778 73.4H331.122C331.73 73.4 332.21 73.56 332.562 73.88C332.914 74.2 333.154 74.568 333.282 74.984L343.746 105.656L343.794 105.944C343.794 106.232 343.682 106.488 343.458 106.712C343.266 106.904 343.026 107 342.738 107H333.666C332.642 107 331.922 106.456 331.506 105.368L330.306 102.008H318.594L317.394 105.368ZM324.45 82.664L321.042 92.648H327.858L324.45 82.664ZM382.368 86.744C382.72 86.744 383.024 86.872 383.28 87.128C383.536 87.384 383.664 87.688 383.664 88.04V93.128C383.664 97.992 382 101.608 378.672 103.976C375.376 106.312 371.008 107.48 365.568 107.48C360.128 107.48 355.744 106.312 352.416 103.976C349.12 101.608 347.472 97.96 347.472 93.032V87.368C347.472 84.104 348.272 81.4 349.872 79.256C351.472 77.08 353.632 75.48 356.352 74.456C359.072 73.432 362.144 72.92 365.568 72.92C369.664 72.92 373.04 73.592 375.696 74.936C378.352 76.28 380.272 77.8 381.456 79.496C382.672 81.192 383.28 82.568 383.28 83.624C383.28 83.912 383.168 84.168 382.944 84.392C382.752 84.584 382.512 84.68 382.224 84.68H371.376C370.736 84.68 370.272 84.504 369.984 84.152C368.992 82.904 367.52 82.28 365.568 82.28C364.096 82.28 362.864 82.616 361.872 83.288C360.912 83.96 360.432 84.824 360.432 85.88V94.04C360.432 95.32 360.912 96.328 361.872 97.064C362.832 97.768 364.064 98.12 365.568 98.12C367.552 98.12 369.008 97.784 369.936 97.112C370.896 96.408 371.392 95.592 371.424 94.664H368.448C368.096 94.664 367.792 94.536 367.536 94.28C367.28 94.024 367.152 93.72 367.152 93.368V88.04C367.152 87.688 367.28 87.384 367.536 87.128C367.792 86.872 368.096 86.744 368.448 86.744H382.368ZM421.421 97.64C421.773 97.64 422.077 97.768 422.333 98.024C422.589 98.28 422.717 98.584 422.717 98.936V105.704C422.717 106.056 422.589 106.36 422.333 106.616C422.077 106.872 421.773 107 421.421 107H391.085C390.733 107 390.429 106.872 390.173 106.616C389.917 106.36 389.789 106.056 389.789 105.704V74.696C389.789 74.344 389.917 74.04 390.173 73.784C390.429 73.528 390.733 73.4 391.085 73.4H420.941C421.293 73.4 421.597 73.528 421.853 73.784C422.109 74.04 422.237 74.344 422.237 74.696V81.464C422.237 81.816 422.109 82.12 421.853 82.376C421.597 82.632 421.293 82.76 420.941 82.76H402.269V85.784H418.301C418.653 85.784 418.957 85.912 419.213 86.168C419.469 86.424 419.597 86.728 419.597 87.08V93.32C419.597 93.672 419.469 93.976 419.213 94.232C418.957 94.488 418.653 94.616 418.301 94.616H402.269V97.64H421.421ZM449.29 85.592C452.81 85.976 455.626 86.6 457.738 87.464C459.882 88.328 461.434 89.464 462.394 90.872C463.354 92.28 463.834 94.04 463.834 96.152C463.834 98.456 463.082 100.472 461.578 102.2C460.106 103.896 458.058 105.208 455.434 106.136C452.81 107.032 449.818 107.48 446.458 107.48C442.714 107.48 439.546 107.016 436.954 106.088C434.362 105.16 432.426 103.928 431.146 102.392C429.866 100.824 429.226 99.112 429.226 97.256C429.226 96.936 429.322 96.68 429.514 96.488C429.738 96.296 430.01 96.2 430.33 96.2H440.17C440.842 96.2 441.386 96.408 441.802 96.824C442.346 97.336 442.954 97.688 443.626 97.88C444.298 98.04 445.242 98.12 446.458 98.12C449.498 98.12 451.018 97.656 451.018 96.728C451.018 96.344 450.81 96.024 450.394 95.768C450.01 95.48 449.306 95.24 448.282 95.048C447.29 94.824 445.818 94.6 443.866 94.376C439.482 93.864 436.122 92.776 433.786 91.112C431.45 89.416 430.282 87.032 430.282 83.96C430.282 81.784 430.938 79.864 432.25 78.2C433.562 76.536 435.418 75.24 437.818 74.312C440.25 73.384 443.066 72.92 446.266 72.92C449.594 72.92 452.506 73.448 455.002 74.504C457.498 75.528 459.402 76.808 460.714 78.344C462.026 79.88 462.682 81.384 462.682 82.856C462.682 83.176 462.57 83.432 462.346 83.624C462.154 83.816 461.882 83.912 461.53 83.912H451.21C450.666 83.912 450.17 83.72 449.722 83.336C449.37 83.016 448.954 82.76 448.474 82.568C447.994 82.376 447.258 82.28 446.266 82.28C444.122 82.28 443.05 82.728 443.05 83.624C443.05 84.104 443.466 84.488 444.298 84.776C445.13 85.032 446.794 85.304 449.29 85.592Z" fill="#FFDAC6"/>
<path d="M497.777 106.872C500.241 106.872 502.337 107.288 504.065 108.12C505.793 108.92 507.073 109.976 507.905 111.288C508.769 112.6 509.201 114.024 509.201 115.56C509.201 117.352 508.721 118.936 507.761 120.312C506.801 121.688 505.297 122.968 503.249 124.152L506.369 127.368C506.433 127.336 506.561 127.208 506.753 126.984C506.945 126.728 507.201 126.344 507.521 125.832C507.841 125.32 508.193 124.68 508.577 123.912C508.641 123.784 508.753 123.672 508.913 123.576C509.073 123.48 509.281 123.432 509.537 123.432H517.313C517.569 123.432 517.777 123.512 517.937 123.672C518.097 123.832 518.177 124.04 518.177 124.296C518.177 125.256 517.521 126.792 516.209 128.904C514.897 131.016 513.665 132.68 512.513 133.896L518.273 139.512C518.465 139.704 518.561 139.928 518.561 140.184C518.561 140.408 518.465 140.6 518.273 140.76C518.113 140.92 517.921 141 517.697 141H507.569C507.281 141 507.057 140.968 506.897 140.904C506.737 140.808 506.561 140.68 506.369 140.52L505.073 139.368C503.569 140.232 502.081 140.824 500.609 141.144C499.137 141.496 497.537 141.672 495.809 141.672C491.393 141.672 487.985 140.792 485.585 139.032C483.217 137.272 482.033 134.712 482.033 131.352C482.033 129.432 482.545 127.72 483.569 126.216C484.625 124.712 486.193 123.384 488.273 122.232C486.481 120.056 485.585 117.912 485.585 115.8C485.585 114.2 486.033 112.728 486.929 111.384C487.857 110.008 489.233 108.92 491.057 108.12C492.913 107.288 495.153 106.872 497.777 106.872ZM497.777 114.216C497.329 114.216 496.929 114.392 496.577 114.744C496.257 115.064 496.097 115.48 496.097 115.992C496.097 116.568 496.561 117.288 497.489 118.152C498.833 117.544 499.505 116.76 499.505 115.8C499.505 114.744 498.929 114.216 497.777 114.216ZM496.673 133.56C497.473 133.56 498.097 133.4 498.545 133.08L494.273 128.76C493.409 129.176 492.977 129.848 492.977 130.776C492.977 131.576 493.297 132.248 493.937 132.792C494.577 133.304 495.489 133.56 496.673 133.56ZM596.812 107.4C597.164 107.4 597.468 107.528 597.724 107.784C597.98 108.04 598.108 108.344 598.108 108.696V115.992C598.108 116.344 597.98 116.648 597.724 116.904C597.468 117.16 597.164 117.288 596.812 117.288H577.948V120.36H593.692C594.044 120.36 594.348 120.488 594.604 120.744C594.86 121 594.988 121.304 594.988 121.656V128.904C594.988 129.256 594.86 129.56 594.604 129.816C594.348 130.072 594.044 130.2 593.692 130.2H577.948V139.704C577.948 140.056 577.82 140.36 577.564 140.616C577.308 140.872 577.004 141 576.652 141H566.284C565.932 141 565.628 140.872 565.372 140.616C565.116 140.36 564.988 140.056 564.988 139.704V108.696C564.988 108.344 565.116 108.04 565.372 107.784C565.628 107.528 565.932 107.4 566.284 107.4H596.812ZM640.425 139.512C640.489 139.64 640.521 139.784 640.521 139.944C640.521 140.232 640.409 140.488 640.185 140.712C639.993 140.904 639.753 141 639.465 141H628.569C628.121 141 627.705 140.888 627.321 140.664C626.969 140.44 626.713 140.152 626.553 139.8L622.329 130.296H618.297V139.704C618.297 140.056 618.169 140.36 617.913 140.616C617.657 140.872 617.353 141 617.001 141H606.633C606.281 141 605.977 140.872 605.721 140.616C605.465 140.36 605.337 140.056 605.337 139.704V108.696C605.337 108.344 605.465 108.04 605.721 107.784C605.977 107.528 606.281 107.4 606.633 107.4H625.305C628.185 107.4 630.697 107.864 632.841 108.792C635.017 109.72 636.681 111.064 637.833 112.824C638.985 114.584 639.561 116.648 639.561 119.016C639.561 123.368 637.881 126.52 634.521 128.472L640.425 139.512ZM624.297 121.416C625.001 121.416 625.545 121.192 625.929 120.744C626.313 120.264 626.505 119.672 626.505 118.968C626.505 118.264 626.313 117.656 625.929 117.144C625.577 116.6 625.033 116.328 624.297 116.328H618.297V121.416H624.297ZM655.238 139.368C654.822 140.456 654.102 141 653.078 141H644.006C643.718 141 643.462 140.904 643.238 140.712C643.046 140.488 642.95 140.232 642.95 139.944L642.998 139.656L653.462 108.984C653.59 108.568 653.83 108.2 654.182 107.88C654.534 107.56 655.014 107.4 655.622 107.4H668.966C669.574 107.4 670.054 107.56 670.406 107.88C670.758 108.2 670.998 108.568 671.126 108.984L681.59 139.656L681.638 139.944C681.638 140.232 681.526 140.488 681.302 140.712C681.11 140.904 680.87 141 680.582 141H671.51C670.486 141 669.766 140.456 669.35 139.368L668.15 136.008H656.438L655.238 139.368ZM662.294 116.664L658.886 126.648H665.702L662.294 116.664ZM709.219 108.696C709.699 107.832 710.387 107.4 711.283 107.4H720.067C720.419 107.4 720.723 107.528 720.979 107.784C721.235 108.04 721.363 108.344 721.363 108.696V139.704C721.363 140.056 721.235 140.36 720.979 140.616C720.723 140.872 720.419 141 720.067 141H711.379C711.027 141 710.723 140.872 710.467 140.616C710.211 140.36 710.083 140.056 710.083 139.704V124.824L706.579 131.736C706.483 131.96 706.259 132.216 705.907 132.504C705.555 132.792 705.107 132.936 704.563 132.936H701.299C700.755 132.936 700.307 132.792 699.955 132.504C699.603 132.216 699.379 131.96 699.283 131.736L695.779 124.824V139.704C695.779 140.056 695.651 140.36 695.395 140.616C695.139 140.872 694.835 141 694.483 141H685.795C685.443 141 685.139 140.872 684.883 140.616C684.627 140.36 684.499 140.056 684.499 139.704V108.696C684.499 108.344 684.627 108.04 684.883 107.784C685.139 107.528 685.443 107.4 685.795 107.4H694.579C695.475 107.4 696.163 107.832 696.643 108.696L702.931 120.216L709.219 108.696ZM759.265 131.64C759.617 131.64 759.921 131.768 760.177 132.024C760.433 132.28 760.561 132.584 760.561 132.936V139.704C760.561 140.056 760.433 140.36 760.177 140.616C759.921 140.872 759.617 141 759.265 141H728.929C728.577 141 728.273 140.872 728.017 140.616C727.761 140.36 727.633 140.056 727.633 139.704V108.696C727.633 108.344 727.761 108.04 728.017 107.784C728.273 107.528 728.577 107.4 728.929 107.4H758.785C759.137 107.4 759.441 107.528 759.697 107.784C759.953 108.04 760.081 108.344 760.081 108.696V115.464C760.081 115.816 759.953 116.12 759.697 116.376C759.441 116.632 759.137 116.76 758.785 116.76H740.113V119.784H756.145C756.497 119.784 756.801 119.912 757.057 120.168C757.313 120.424 757.441 120.728 757.441 121.08V127.32C757.441 127.672 757.313 127.976 757.057 128.232C756.801 128.488 756.497 128.616 756.145 128.616H740.113V131.64H759.265ZM780.27 139.704C780.174 139.992 779.934 140.28 779.55 140.568C779.198 140.856 778.734 141 778.158 141H771.438C770.83 141 770.318 140.824 769.902 140.472C769.518 140.088 769.294 139.656 769.23 139.176L765.054 108.6V108.456C765.054 108.168 765.15 107.928 765.342 107.736C765.566 107.512 765.822 107.4 766.11 107.4H774.366C775.006 107.4 775.518 107.592 775.902 107.976C776.318 108.36 776.558 108.84 776.622 109.416L778.158 124.104L780.942 116.472C781.038 116.152 781.262 115.848 781.614 115.56C781.998 115.24 782.478 115.08 783.054 115.08H786.318C786.894 115.08 787.358 115.24 787.71 115.56C788.094 115.848 788.334 116.152 788.43 116.472L791.214 124.104L792.75 109.416C792.814 108.84 793.038 108.36 793.422 107.976C793.838 107.592 794.366 107.4 795.006 107.4H803.262C803.55 107.4 803.79 107.512 803.982 107.736C804.206 107.928 804.318 108.168 804.318 108.456V108.6L800.142 139.176C800.078 139.656 799.838 140.088 799.422 140.472C799.038 140.824 798.542 141 797.934 141H791.214C790.638 141 790.158 140.856 789.774 140.568C789.422 140.28 789.198 139.992 789.102 139.704L784.686 129.576L780.27 139.704ZM843.131 127.128C843.131 132.024 841.499 135.64 838.235 137.976C835.003 140.312 830.683 141.48 825.275 141.48C819.867 141.48 815.531 140.312 812.267 137.976C809.035 135.64 807.419 131.992 807.419 127.032V121.368C807.419 118.104 808.187 115.4 809.723 113.256C811.291 111.08 813.419 109.48 816.107 108.456C818.795 107.432 821.851 106.92 825.275 106.92C828.699 106.92 831.739 107.432 834.395 108.456C837.083 109.48 839.211 111.064 840.779 113.208C842.347 115.352 843.131 118.04 843.131 121.272V127.128ZM820.379 128.04C820.379 129.352 820.811 130.36 821.675 131.064C822.571 131.768 823.771 132.12 825.275 132.12C826.779 132.12 827.963 131.768 828.827 131.064C829.723 130.328 830.171 129.304 830.171 127.992V120.408C830.171 119.096 829.723 118.088 828.827 117.384C827.963 116.648 826.779 116.28 825.275 116.28C823.771 116.28 822.571 116.632 821.675 117.336C820.811 118.04 820.379 119.048 820.379 120.36V128.04ZM885.112 139.512C885.176 139.64 885.208 139.784 885.208 139.944C885.208 140.232 885.096 140.488 884.872 140.712C884.68 140.904 884.44 141 884.152 141H873.256C872.808 141 872.392 140.888 872.008 140.664C871.656 140.44 871.4 140.152 871.24 139.8L867.016 130.296H862.984V139.704C862.984 140.056 862.856 140.36 862.6 140.616C862.344 140.872 862.04 141 861.688 141H851.32C850.968 141 850.664 140.872 850.408 140.616C850.152 140.36 850.024 140.056 850.024 139.704V108.696C850.024 108.344 850.152 108.04 850.408 107.784C850.664 107.528 850.968 107.4 851.32 107.4H869.992C872.872 107.4 875.384 107.864 877.528 108.792C879.704 109.72 881.368 111.064 882.52 112.824C883.672 114.584 884.248 116.648 884.248 119.016C884.248 123.368 882.568 126.52 879.208 128.472L885.112 139.512ZM868.984 121.416C869.688 121.416 870.232 121.192 870.616 120.744C871 120.264 871.192 119.672 871.192 118.968C871.192 118.264 871 117.656 870.616 117.144C870.264 116.6 869.72 116.328 868.984 116.328H862.984V121.416H868.984ZM926.662 139.32C926.79 139.512 926.854 139.72 926.854 139.944C926.854 140.232 926.742 140.488 926.518 140.712C926.326 140.904 926.086 141 925.798 141H913.414C912.678 141 912.102 140.744 911.686 140.232L903.334 129.912V139.704C903.334 140.056 903.206 140.36 902.95 140.616C902.694 140.872 902.39 141 902.038 141H892.15C891.798 141 891.494 140.872 891.238 140.616C890.982 140.36 890.854 140.056 890.854 139.704V108.696C890.854 108.344 890.982 108.04 891.238 107.784C891.494 107.528 891.798 107.4 892.15 107.4H902.038C902.39 107.4 902.694 107.528 902.95 107.784C903.206 108.04 903.334 108.344 903.334 108.696V117.72L910.918 108.216C911.398 107.672 911.99 107.4 912.694 107.4H924.262C924.55 107.4 924.79 107.512 924.982 107.736C925.206 107.928 925.318 108.168 925.318 108.456C925.318 108.712 925.238 108.936 925.078 109.128L913.702 123L926.662 139.32ZM950.259 119.592C953.779 119.976 956.595 120.6 958.707 121.464C960.851 122.328 962.403 123.464 963.363 124.872C964.323 126.28 964.803 128.04 964.803 130.152C964.803 132.456 964.051 134.472 962.547 136.2C961.075 137.896 959.027 139.208 956.403 140.136C953.779 141.032 950.787 141.48 947.427 141.48C943.683 141.48 940.515 141.016 937.923 140.088C935.331 139.16 933.395 137.928 932.115 136.392C930.835 134.824 930.195 133.112 930.195 131.256C930.195 130.936 930.291 130.68 930.483 130.488C930.707 130.296 930.979 130.2 931.299 130.2H941.139C941.811 130.2 942.355 130.408 942.771 130.824C943.315 131.336 943.923 131.688 944.595 131.88C945.267 132.04 946.211 132.12 947.427 132.12C950.467 132.12 951.987 131.656 951.987 130.728C951.987 130.344 951.779 130.024 951.363 129.768C950.979 129.48 950.275 129.24 949.251 129.048C948.259 128.824 946.787 128.6 944.835 128.376C940.451 127.864 937.091 126.776 934.755 125.112C932.419 123.416 931.251 121.032 931.251 117.96C931.251 115.784 931.907 113.864 933.219 112.2C934.531 110.536 936.387 109.24 938.787 108.312C941.219 107.384 944.035 106.92 947.235 106.92C950.563 106.92 953.475 107.448 955.971 108.504C958.467 109.528 960.371 110.808 961.683 112.344C962.995 113.88 963.651 115.384 963.651 116.856C963.651 117.176 963.539 117.432 963.315 117.624C963.123 117.816 962.851 117.912 962.499 117.912H952.179C951.635 117.912 951.139 117.72 950.691 117.336C950.339 117.016 949.923 116.76 949.443 116.568C948.963 116.376 948.227 116.28 947.235 116.28C945.091 116.28 944.019 116.728 944.019 117.624C944.019 118.104 944.435 118.488 945.267 118.776C946.099 119.032 947.763 119.304 950.259 119.592Z" fill="#FFDAC6"/>
</g>
<defs>
<filter id="filter0_d_1_68" x="0" y="0" width="1007" height="237" filterUnits="userSpaceOnUse" color-interpolation-filters="sRGB">
<feFlood flood-opacity="0" result="BackgroundImageFix"/>
<feColorMatrix in="SourceAlpha" type="matrix" values="0 0 0 0 0 0 0 0 0 0 0 0 0 0 0 0 0 0 127 0" result="hardAlpha"/>
<feOffset dx="10" dy="10"/>
<feComposite in2="hardAlpha" operator="out"/>
<feColorMatrix type="matrix" values="0 0 0 0 1 0 0 0 0 0.854902 0 0 0 0 0.776471 0 0 0 1 0"/>
<feBlend mode="normal" in2="BackgroundImageFix" result="effect1_dropShadow_1_68"/>
<feBlend mode="normal" in="SourceGraphic" in2="effect1_dropShadow_1_68" result="shape"/>
</filter>
</defs>
</svg>
